PathFileType	4	(X/Y/Z)	C:\InverseKin\data\OA1\Walking\OA1_80_1.trc
DataRate	CameraRate	NumFrames	NumMarkers	Units	OrigDataRate	OrigDataStartFrame	OrigNumFrames
100.00	100.00	       7	42	mm	100.00	146	       291
Frame#	Time	R.Shoulder			R.Clavicle			R.Bicep			R.Elbow			R.Forearm			R.Wrist			L.Shoulder			L.Clavicle			L.Scapula			L.Bicep			L.Elbow			L.Forearm			L.Wrist			R.ASIS			R.Iliac			R.PSIS			S2			L.PSIS			L.Iliac			L.ASIS			R.TH1			R.TH2			R.TH3			R.Knee			R.SH1			R.SH2			R.SH3			R.SH4			R.Ankle			R.Heel			R.MT5			L.TH1			L.TH2			L.TH3			L.TH4			L.Knee			L.SH1			L.SH2			L.SH3			L.Ankle			L.Heel			L.MT5			
		X1	Y1	Z1	X2	Y2	Z2	X3	Y3	Z3	X4	Y4	Z4	X5	Y5	Z5	X6	Y6	Z6	X7	Y7	Z7	X8	Y8	Z8	X9	Y9	Z9	X10	Y10	Z10	X11	Y11	Z11	X12	Y12	Z12	X13	Y13	Z13	X14	Y14	Z14	X15	Y15	Z15	X16	Y16	Z16	X17	Y17	Z17	X18	Y18	Z18	X19	Y19	Z19	X20	Y20	Z20	X21	Y21	Z21	X22	Y22	Z22	X23	Y23	Z23	X24	Y24	Z24	X25	Y25	Z25	X26	Y26	Z26	X27	Y27	Z27	X28	Y28	Z28	X29	Y29	Z29	X30	Y30	Z30	X31	Y31	Z31	X32	Y32	Z32	X33	Y33	Z33	X34	Y34	Z34	X35	Y35	Z35	X36	Y36	Z36	X37	Y37	Z37	X38	Y38	Z38	X39	Y39	Z39	X40	Y40	Z40	X41	Y41	Z41	X42	Y42	Z42	

146	1.450	-3.85522	73.57199	1389.30701	15.85459	237.08203	1340.75671	59.87326	74.01842	1267.84277	76.11433	-19.94338	1095.72839	180.98666	33.33112	1057.69165	270.84558	21.46760	969.29852	-70.36501	452.18585	1368.63440	14.22634	291.95389	1343.12708	-198.44449	342.11481	1302.90210	-93.81027	460.49374	1125.18494	-192.22896	490.38461	1078.18982	-142.56764	475.99701	921.44476	-172.52078	512.84985	837.12781	34.52365	112.33430	971.62982	-94.22709	73.19314	1051.75061	-202.61017	176.64026	1007.75385	-210.34515	236.12138	992.47266	-196.61812	291.74310	1017.37195	-81.96902	405.78870	1052.98254	40.13722	360.43921	983.48230	18.99204	108.65978	701.09662	16.28364	117.40533	623.31757	-120.65862	65.57023	623.03693	-109.09666	81.89606	479.24738	-166.51237	139.65727	317.00333	-225.74838	144.14230	272.75449	-223.34407	71.52210	386.73862	-284.50275	79.30355	348.37326	-407.59305	114.12023	202.50349	-492.30872	172.73897	234.82529	-405.45685	101.79964	68.84149	87.24713	361.53522	792.21942	108.84596	345.61581	714.79382	-38.59616	425.62476	747.13397	-19.96076	406.16577	666.44043	70.74517	370.50214	506.49347	125.31049	337.13080	360.80600	127.82530	322.82254	285.73871	22.82960	362.66043	272.90598	70.30053	330.26996	99.45757	-3.51461	286.58215	45.81348	182.50134	352.31326	40.06994	
147	1.460	5.99170	74.10740	1390.51526	26.22139	236.71187	1341.94385	69.48802	73.69048	1268.06018	83.02593	-20.05847	1096.57996	186.92557	32.03401	1055.13696	274.25638	19.72818	964.75494	-58.97968	453.23059	1369.70435	25.53011	292.49048	1344.41907	-187.44090	343.24982	1303.77222	-79.56164	461.75812	1126.53516	-177.73471	492.40140	1078.36621	-125.86787	477.73865	922.64819	-153.67400	514.88202	837.69873	44.83912	113.98210	971.31268	-84.00225	73.90617	1052.05969	-192.54419	177.97816	1007.97546	-199.51233	237.29054	993.49561	-185.30611	292.84006	1018.39368	-69.59671	406.62689	1054.15674	51.21962	360.92270	984.99200	34.56350	108.97819	702.82159	33.37662	116.98146	625.13434	-102.80513	66.27816	621.35992	-88.17498	82.52562	478.70346	-147.73073	138.54349	318.38303	-207.38342	142.95389	275.74695	-203.36745	71.84665	391.06598	-265.10846	78.91113	354.05844	-389.15610	114.09223	211.24010	-470.97745	171.63628	249.04381	-396.43671	101.08418	75.80064	96.82465	362.57721	791.02856	117.24604	347.05951	713.23962	-29.87632	426.83624	748.24969	-12.94196	405.88626	666.53223	74.31740	371.81485	506.03262	129.32529	338.01193	359.70004	130.67159	323.88919	285.30371	24.57468	361.41226	273.36166	70.42481	330.01309	99.15524	-3.56176	286.46140	45.97684	182.50134	352.31326	40.06994	
148	1.470	15.60035	74.58421	1391.49695	37.64457	237.04813	1343.17834	78.08301	73.87344	1268.22473	89.07111	-20.66986	1096.80420	191.99919	30.96337	1051.90381	277.91049	18.29803	960.33264	-46.25943	454.10086	1371.06750	36.84777	292.61145	1345.20483	-175.88945	344.39163	1305.04407	-65.66225	463.05600	1127.62903	-162.14198	494.99371	1078.83020	-108.70007	479.40817	923.55139	-134.59254	516.95007	838.08246	52.82415	113.76207	971.91687	-74.66962	74.83555	1052.42029	-183.05473	179.74774	1009.00787	-189.18575	239.22125	994.27222	-174.34882	295.06696	1019.86066	-58.17502	408.58392	1055.79431	62.14254	360.99759	985.89130	49.63142	109.16882	705.70599	50.85962	117.14072	627.00458	-86.25179	66.86167	621.01807	-67.74917	81.62589	480.36081	-127.61983	137.32538	320.82968	-187.95964	140.63623	278.94550	-183.01265	72.49400	395.16101	-245.28564	80.67580	359.25525	-370.92654	113.38956	218.33868	-448.23083	171.51021	261.63892	-386.06461	100.10893	83.36598	105.86720	364.72421	789.94550	124.87112	348.51263	712.25446	-21.71735	427.61734	748.80664	-6.01361	407.10095	667.47607	77.75437	371.96060	504.90933	132.68254	338.87411	359.30389	133.53853	324.25363	284.79846	26.49997	360.94574	273.73999	70.72344	329.45035	99.15881	-3.56176	286.46140	45.97684	182.50134	352.31326	40.06994	
149	1.480	25.16469	74.39304	1392.29504	48.46313	237.84167	1343.91321	86.53873	73.28745	1268.47485	95.07207	-20.00525	1096.76526	197.44527	29.76591	1048.73132	280.61911	16.27232	955.20929	-33.90932	454.56494	1372.01331	47.45004	292.71619	1346.33350	-164.39241	346.36392	1306.13000	-51.63105	464.91187	1128.78186	-147.62819	497.14499	1078.79138	-91.11739	481.61490	924.62164	-115.31928	519.29169	838.86993	62.48662	114.04514	972.07733	-65.36572	75.30264	1052.68872	-172.60725	181.27881	1009.65363	-178.98093	240.56032	995.37762	-164.02982	296.29541	1021.59454	-47.20346	409.14615	1056.86707	72.92377	361.37192	986.55725	64.58636	109.35561	707.56030	67.71777	116.49533	630.05261	-69.88396	66.71674	620.92670	-46.41665	81.98139	480.85413	-106.68913	136.67763	323.54871	-168.19177	140.18846	282.17206	-161.61893	73.20163	399.14362	-225.35400	80.64109	364.22025	-351.33340	112.99902	224.43924	-425.24335	172.30347	271.95581	-373.94061	99.89271	88.88468	114.21319	366.41608	788.92676	132.79660	349.84628	710.77283	-14.09134	428.56857	749.50598	0.26630	406.46936	667.75031	80.86043	372.43835	503.81833	136.11241	339.31638	358.27695	135.95735	324.82922	283.17743	28.94993	360.55649	274.35593	71.01787	329.31195	99.36546	-3.56176	286.46140	45.97684	182.50134	352.31326	40.06994	
150	1.490	34.76197	74.38867	1393.13611	58.73673	237.15619	1345.29407	95.23458	72.38364	1268.36768	101.26035	-20.95836	1096.79736	202.49582	28.20239	1045.99365	283.08832	13.58507	950.10553	-21.59828	454.82962	1373.28455	58.35377	292.86829	1347.52905	-153.07057	348.14862	1307.23669	-37.91662	466.12695	1129.90808	-133.23457	499.78250	1078.73987	-73.32446	483.61044	925.21570	-96.08455	521.76569	839.45532	72.30595	114.59036	973.17865	-56.27630	76.65741	1053.50488	-162.52800	183.64291	1010.50708	-169.07410	242.65115	996.65527	-153.32887	298.56689	1022.62366	-34.41568	409.55667	1058.49548	83.68909	361.42804	987.50018	80.49001	109.64869	710.97394	85.34315	116.80521	633.33704	-51.74959	67.56973	620.88861	-26.05869	82.08075	482.78857	-85.23767	136.47049	325.61203	-147.80193	141.57037	284.68701	-139.87151	73.85487	402.54105	-203.75394	81.24955	368.39874	-331.32672	113.10303	230.45346	-403.87216	174.18451	278.68030	-358.17426	98.63155	95.11385	122.42127	367.06110	787.40057	139.49014	351.41522	709.01050	-6.83040	428.48734	749.89246	5.76822	406.28632	668.27063	84.27451	373.05151	502.05338	139.37909	339.37570	357.29294	138.14383	324.65793	282.66418	31.53469	360.52179	274.44925	71.23991	329.23230	99.33852	-3.48152	286.02982	46.29187	182.50134	352.31326	40.06994	
151	1.500	44.15232	74.21698	1393.61987	68.94074	236.31514	1345.70813	102.39018	71.10532	1267.74194	106.29457	-21.56945	1096.42114	206.94318	27.01748	1042.60620	285.10971	11.33839	944.36554	-9.53699	455.67267	1374.16614	69.01663	292.59009	1348.19788	-141.73109	349.63599	1308.48425	-23.64300	467.84634	1131.04163	-117.42693	502.56006	1078.11060	-55.77006	485.97333	926.13684	-76.11964	523.91785	839.94232	82.56007	114.91122	974.09644	-46.95101	77.78030	1054.29419	-152.65718	185.29865	1011.16357	-159.00893	244.61343	998.00647	-143.36432	300.40872	1024.23743	-23.55364	411.53427	1059.44043	94.18083	361.74957	987.83734	95.11475	109.32748	714.34009	102.07422	116.49606	637.29382	-35.01454	67.59991	621.51691	-5.41919	82.31543	484.52722	-65.24444	137.20898	328.12277	-127.20309	141.49356	288.38345	-118.25910	74.42283	405.61096	-183.03702	82.63824	372.10486	-312.15158	114.01615	235.66180	-383.74438	177.90675	283.50854	-339.52850	97.16724	101.93686	129.86853	368.54581	787.16626	146.62535	352.67264	708.19879	-0.14263	428.08881	750.91028	12.56232	406.64285	668.61279	87.83081	373.72437	501.55975	142.44025	339.34558	356.65466	140.38229	324.55493	281.65060	34.12551	361.07620	274.81039	71.32856	329.18082	99.44260	-3.48152	286.02982	46.29187	182.50134	352.31326	40.06994	
152	1.510	53.08513	73.79238	1393.77893	79.83479	237.63344	1346.65735	110.94087	69.83900	1267.69934	111.15277	-22.19428	1095.31409	210.92686	25.51271	1039.37537	286.35199	9.46831	938.72815	2.99576	456.27603	1375.15833	80.03742	292.78302	1349.18030	-130.37460	351.14673	1309.56885	-9.47573	468.84412	1131.55872	-101.87453	505.02026	1078.27295	-37.39109	487.79050	926.92584	-55.83131	526.51642	840.59259	91.13830	114.69702	975.61615	-37.94525	79.07449	1055.10742	-144.22020	187.30305	1013.48291	-148.83946	246.72095	999.15808	-133.04674	301.79694	1025.42822	-13.19831	412.07376	1060.56494	104.43506	361.33374	988.29285	110.75838	109.92992	718.93597	118.87867	116.21785	641.06244	-17.58256	67.86637	622.72540	15.80048	82.20434	487.57700	-43.92780	138.05656	331.16495	-105.34875	142.31029	291.69513	-96.76276	75.02710	409.02060	-161.22852	82.45472	375.71912	-293.01160	115.25565	241.66528	-364.58804	181.52956	285.41006	-316.73352	94.71623	108.13472	137.61475	369.55438	786.59155	153.48795	353.87659	707.61591	6.83973	428.78851	751.74054	18.57432	407.08923	669.45544	91.28085	373.73120	501.94818	145.80811	339.80948	355.74979	142.93057	324.78156	280.61926	36.53195	361.35666	274.93533	71.32856	329.18082	99.44260	-3.57473	286.13376	46.02673	182.80406	352.72574	40.23586	
